# xmcd
#
# Track frame offsets: 
#        150
#        14835
#        30570
#        46142
#        62170
#        79415
#        93472
#        109067
#        121502
#        138222
#
# Disc length: 2010 seconds
#
# Revision: 2
# Processed by: cddbd v1.5.2PL0 Copyright (c) Steve Scherf et al.
# Submitted via: ExactAudioCopy v1.1
#
DISCID=7d07d80a
DTITLE=Skip Ewing - The Coast Of Colorado
DYEAR=1988
DGENRE=Country
TTITLE0=Burnin' A Hole In My Heart
TTITLE1=A Lighter Shade Of Blue
TTITLE2=I Don't Have Far To Fall
TTITLE3=Autumn's Not That Cold
TTITLE4=The Coast Of Colorado
TTITLE5=Your Memory Wins Again
TTITLE6=Dad
TTITLE7=Don't Mind If I Do
TTITLE8=The Gospel According To Luke
TTITLE9=Still Under The Weather
EXTD=
EXTT0=
EXTT1=
EXTT2=
EXTT3=
EXTT4=
EXTT5=
EXTT6=
EXTT7=
EXTT8=
EXTT9=
PLAYORDER=
